<?xml version="1.0" encoding="UTF-8"?>
<svg version="1.1" xmlns="http://www.w3.org/2000/svg" width="256" height="256">
<path d="M0 0 C8.05100122 6.14280937 13.96471706 13.34446069 17.6875 22.8125 C17.6875 23.4725 17.6875 24.1325 17.6875 24.8125 C18.55890625 24.76609375 19.4303125 24.7196875 20.328125 24.671875 C36.08835897 24.19429215 49.35398355 29.5885145 60.9375 40.375 C71.39404012 51.43771636 77.29812296 64.86889393 77.125 80.125 C77.11799072 81.49096313 77.11799072 81.49096313 77.11083984 82.88452148 C76.91342606 91.94388834 74.90269051 99.74287854 70.6875 107.8125 C71.945625 108.1425 73.20375 108.4725 74.5 108.8125 C80.7778018 110.91497136 85.59834741 114.66718135 90.6875 118.8125 C91.41195312 119.38613281 92.13640625 119.95976562 92.8828125 120.55078125 C101.59725787 128.2570849 107.84457324 141.43287375 108.88671875 153.02929688 C108.99049953 155.37833482 109.01673979 157.71127695 109 160.0625 C108.99436035 160.89587891 108.9887207 161.72925781 108.98291016 162.58789062 C108.66245076 178.97256708 102.37701468 191.43418705 90.6875 202.8125 C78.62327297 213.8444937 65.77202266 217.11409473 49.84863281 217.10302734 C48.44674321 217.10901871 47.04485689 217.11582565 45.64297485 217.12338257 C41.84936555 217.14098973 38.05584658 217.14573576 34.26220036 217.14701414 C31.88728214 217.14843951 29.51238662 217.15271643 27.13747406 217.15800858 C18.83837944 217.17649266 10.5393489 217.18468138 2.24023438 217.18310547 C-5.47318743 217.1819051 -13.18632897 217.20299103 -20.8996799 217.2345928 C-27.54029099 217.26082161 -34.18081092 217.27146998 -40.82147336 217.27019465 C-44.77948707 217.26968687 -48.7372516 217.27526692 -52.69521332 217.29655075 C-56.42181798 217.3160446 -60.14793866 217.31598254 -63.87456131 217.30151749 C-65.87746807 217.29845982 -67.88037545 217.31502821 -69.88320923 217.33239746 C-82.82103144 217.24318883 -93.14180296 213.39543499 -102.6953125 204.625 C-112.09085399 194.95038302 -115.60010434 184.03879656 -115.62939453 170.75732422 C-115.39249367 158.66368165 -110.11153403 148.95518877 -102.1875 140.125 C-97.39633558 135.52720096 -90.07030925 130.8125 -83.3125 130.8125 C-83.33344727 130.24442627 -83.35439453 129.67635254 -83.37597656 129.09106445 C-83.85982389 113.94327451 -82.72709218 102.31765005 -75.3125 88.8125 C-76.14652344 88.85890625 -76.98054688 88.9053125 -77.83984375 88.953125 C-85.38285949 89.19505449 -90.78151183 88.64330365 -97.3125 84.8125 C-98.859375 83.94625 -98.859375 83.94625 -100.4375 83.0625 C-107.60004358 77.45703111 -113.63518015 69.95154182 -115.3125 60.8125 C-116.4557073 42.61488878 -116.4557073 42.61488878 -111.3125 34.8125 C-110.86519531 34.11898437 -110.41789062 33.42546875 -109.95703125 32.7109375 C-104.13508356 24.37603115 -97.42515064 18.93445907 -87.3125 16.8125 C-73.71511866 15.61119067 -73.71511866 15.61119067 -69.3125 17.8125 C-68.93351562 16.72388672 -68.93351562 16.72388672 -68.546875 15.61328125 C-64.03028776 5.36520197 -54.13960094 -0.74734808 -44.3125 -5.1875 C-29.90290126 -10.07117268 -12.69947046 -8.28645265 0 0 Z M-50.359375 18.46875 C-53.76721595 22.55815914 -56.17177395 27.20641561 -58.6484375 31.8984375 C-60.3125 34.8125 -60.3125 34.8125 -62.3125 35.8125 C-65.76007905 36.00764598 -68.48859745 36.15064893 -71.7109375 34.828125 C-76.78752673 32.84627335 -82.49316647 32.79031331 -87.62890625 34.65234375 C-92.68486538 37.5017173 -96.33838381 41.31576364 -98.3125 46.8125 C-99.26860282 52.63532294 -99.22638882 58.00698237 -96.3125 63.25 C-92.8484862 67.96027372 -88.32960968 71.14542228 -82.609375 72.41015625 C-70.32599003 74.14068828 -70.32599003 74.14068828 -58.59375 71.4609375 C-57.19255692 70.27410605 -55.83072771 69.03926574 -54.51171875 67.76171875 C-49.1059642 62.97047271 -41.59078392 59.90771118 -34.4375 59.1875 C-31.17246037 58.62148036 -30.4610573 58.01504976 -28.453125 55.27734375 C-27.26336063 53.15314056 -26.10623935 51.01036287 -24.98046875 48.8515625 C-19.59414419 39.03760347 -8.88888935 33.01705943 0.6875 27.8125 C-1.37889653 20.99339145 -5.85148565 16.40662844 -11.9375 12.9375 C-24.55170932 6.25418208 -40.03750053 8.90213464 -50.359375 18.46875 Z M-48.3125 82.8125 C-49.21935547 83.47378906 -49.21935547 83.47378906 -50.14453125 84.1484375 C-58.35667511 90.6251174 -62.18899249 99.04152779 -65.3125 108.8125 C-65.6425 109.8025 -65.9725 110.7925 -66.3125 111.8125 C-66.41040276 114.6977518 -66.45294461 117.55285425 -66.4375 120.4375 C-66.4377417 121.24985107 -66.4379834 122.06220215 -66.43823242 122.89916992 C-66.41705338 127.03738784 -66.25815523 131.02688538 -65.625 135.125 C-65.26437106 139.38042154 -65.70917114 140.52293801 -68.3125 143.8125 C-70.87890625 144.74609375 -70.87890625 144.74609375 -73.875 145.25 C-82.177283 147.06706556 -88.77896132 150.13568252 -93.8125 157.1875 C-97.5558912 163.50050719 -99.40283568 170.43590801 -98.3125 177.8125 C-96.18456199 185.22002475 -93.27906666 191.44148617 -86.53515625 195.47265625 C-77.27243721 200.3158332 -69.74409099 200.96193691 -59.43896484 200.95776367 C-58.24792145 200.96112228 -57.05687805 200.9644809 -55.82974243 200.96794128 C-52.57318752 200.97579762 -49.31667095 200.97911802 -46.06010771 200.97975707 C-44.02004571 200.98046994 -41.97999031 200.9826088 -39.93992996 200.98525429 C-32.80679147 200.99449859 -25.67367162 200.99859062 -18.54052734 200.99780273 C-11.91842871 200.99720328 -5.29641189 201.00773142 1.32566607 201.0235464 C7.03123911 201.03668106 12.73678562 201.04198411 18.44237363 201.04134732 C21.84089053 201.04109393 25.23933478 201.04385633 28.63783646 201.05452538 C32.43782466 201.06438434 36.23760571 201.06142355 40.03759766 201.05541992 C41.69798065 201.06384918 41.69798065 201.06384918 43.39190674 201.07244873 C57.40504407 201.01653258 70.36462071 198.94982331 81.0625 189.1875 C89.80473464 179.75172692 92.26542805 168.88859119 92.01953125 156.47265625 C91.52921433 146.48270118 86.98807836 139.09014123 80.15625 132.0078125 C72.06667883 124.81423814 63.80249363 121.44786469 53.0625 121.625 C51.93714844 121.6259668 51.93714844 121.6259668 50.7890625 121.62695312 C47.25035828 121.65518747 44.0944855 121.90411774 40.6875 122.8125 C33.73468373 123.50644711 33.73468373 123.50644711 31.0546875 121.73046875 C29.0773187 118.95650281 28.62364438 116.18749501 27.875 112.875 C24.44154241 98.97655181 18.22670665 87.53132781 5.75 79.9375 C-2.14188003 75.44336199 -9.5629029 73.2585206 -18.625 73.375 C-19.45169189 73.38184814 -20.27838379 73.38869629 -21.13012695 73.39575195 C-31.36417413 73.6623104 -40.08911249 76.71185243 -48.3125 82.8125 Z " fill="#1C971D" transform="translate(131.3125,23.1875)"/>
<path d="M0 0 C4.87278792 0.55560294 8.29096361 1.20039394 12.03515625 4.4765625 C13.53515625 7.2890625 13.53515625 7.2890625 13.59765625 10.8515625 C12.31828877 14.99069258 11.32590657 16.22887211 7.53515625 18.2890625 C1.83864887 19.05590003 -3.30880041 17.68698286 -8.46484375 15.2890625 C-11.09504586 12.97767276 -11.3875862 11.80779179 -11.90234375 8.3515625 C-10.82058823 0.77927385 -6.91049488 -0.38674345 0 0 Z " fill="#28C42D" transform="translate(225.46484375,110.7109375)"/>
<path d="M0 0 C4.13913008 1.27936748 5.37730961 2.27174968 7.4375 6.0625 C8.20433753 11.75900738 6.83542036 16.90645666 4.4375 22.0625 C2.12611026 24.69270211 0.95622929 24.98524245 -2.5 25.5 C-6.51581304 24.92631242 -7.99253021 24.23716856 -10.5625 21.0625 C-11.53115185 15.3204916 -10.80960497 9.41274992 -8.5625 4.0625 C-5.67731082 0.76514094 -4.4071255 0.07731799 0 0 Z " fill="#157E14" transform="translate(169.5625,16.9375)"/>
<path d="M0 0 C2.875 1.4375 2.875 1.4375 5 4 C5.78590483 7.16725556 5.80402064 9.83487649 5 13 C2.3125 15.875 2.3125 15.875 -1 18 C-2.2065625 18.8971875 -2.2065625 18.8971875 -3.4375 19.8125 C-6.84415808 21.39119521 -9.28609144 21.40515366 -13 21 C-15.375 20 -15.375 20 -17 18 C-17.8729661 14.86759223 -18.33716001 13.11725129 -18 10 C-14.13217666 3.71478707 -7.77088274 -1.35145787 0 0 Z " fill="#20A421" transform="translate(222,52)"/>
</svg>
